<?xml version="1.0" encoding="UTF-8"?>
<svg id="Layer_1" xmlns="http://www.w3.org/2000/svg" version="1.1" viewBox="0 0 10 10">
  <!-- Generator: Adobe Illustrator 29.6.1, SVG Export Plug-In . SVG Version: 2.1.1 Build 9)  -->
  <defs>
    <style>
      .st0 {
        fill-rule: evenodd;
      }
    </style>
  </defs>
  <path class="st0" d="M9,4.2h-3.2V1c0-.4-.4-.8-.8-.8-.4,0-.8.4-.8.8v3.2H1c-.4,0-.8.4-.8.8s.4.8.8.8h3.2v3.2c0,.4.4.8.8.8h0c.4,0,.8-.4.8-.8v-3.2h3.2c.2,0,.4,0,.6-.2s.2-.3.2-.6c0-.4-.4-.8-.8-.8Z"/>
</svg>